# xmcd
# 
# Track frame offsets:
#     150
#     17275
#     28272
#     41106
#     53707
#     69415
#     83797
#     98585
#     107505
#     123027
#     143531
#     164320
# 
# Disc length: 2408
# 
# Revision: 0
# Processed by: cddbd v1.5.2PL0 Copyright (c) Steve Scherf et al.
# Submitted via: BonkEnc v1.0.15
# 
DISCID=8909660c
DTITLE=DELANEY DAVIDSON  - GHOST SONGS (GASBAH RECORDS)
DYEAR=2010
DGENRE=Blues
TTITLE0=Sleeping Woman
TTITLE1=Ophelia
TTITLE2=Sinners Road
TTITLE3=Girl In White Violin – Bob Drake
TTITLE4=Poison Song
TTITLE5=Hate A Man   Written-By – Jelly Roll Morton
TTITLE6=Stalker
TTITLE7=Stone Song
TTITLE8=I'm A Fool   Written-By – Frank Sinatra, Jack Wolf, Joel Herron
TTITLE9=Wayfairing Stranger   Written-By – Traditional
TTITLE10=Everything Is Lost   Electric Bass – Bob Drake
TTITLE11=Cowboy Costume
EXTD=
EXTT0=
EXTT1=
EXTT2=
EXTT3=
EXTT4=
EXTT5=
EXTT6=
EXTT7=
EXTT8=
EXTT9=
EXTT10=
EXTT11=
PLAYORDER=
